<?xml version="1.0" standalone="no"?><!DOCTYPE svg PUBLIC "-//W3C//DTD SVG 1.1//EN" "http://www.w3.org/Graphics/SVG/1.1/DTD/svg11.dtd"><svg t="1545968716936" class="icon" style="" viewBox="0 0 1024 1024" version="1.1" xmlns="http://www.w3.org/2000/svg" p-id="2360" xmlns:xlink="http://www.w3.org/1999/xlink" width="200" height="200"><defs><style type="text/css"></style></defs><path d="M402.853151 687.701518a343.850759 343.850759 0 1 1 343.850759-343.850759 344.295011 344.295011 0 0 1-343.850759 343.850759z m0-621.952277A277.213015 277.213015 0 1 0 680.954669 343.850759 277.213015 277.213015 0 0 0 402.853151 66.637744zM931.512587 1024a33.318872 33.318872 0 0 1-25.766595-12.439046l-253.667679-310.976138a33.318872 33.318872 0 1 1 51.533189-44.425163l253.667679 310.976139a33.318872 33.318872 0 0 1-25.766594 54.64295z" fill="#ffffff" p-id="2361"></path></svg>